<svg xmlns="http://www.w3.org/2000/svg" viewBox="0 0 512 512">
  <defs>
    <linearGradient id="bg" x1="0" x2="1" y1="0" y2="1"><stop stop-color="#fff3cf"/><stop offset="1" stop-color="#ffebe2"/></linearGradient>
    <clipPath id="a"><rect x="83" y="104" width="98" height="292" rx="43"/></clipPath>
    <clipPath id="b"><rect x="207" y="104" width="98" height="292" rx="43"/></clipPath>
    <clipPath id="c"><rect x="331" y="104" width="98" height="292" rx="43"/></clipPath>
  </defs>
  <rect width="512" height="512" rx="112" fill="url(#bg)"/>
  <ellipse cx="256" cy="414" rx="188" ry="36" fill="#1a1a1a" opacity=".09"/>
  <g clip-path="url(#a)"><path fill="#f76624" d="M83 285h98v111H83z"/><path fill="#d99a12" d="M83 230h98v55H83z"/></g>
  <g clip-path="url(#b)"><path fill="#4e9b90" d="M207 175h98v221h-98z"/></g>
  <g clip-path="url(#c)"><path fill="#e0533f" d="M331 285h98v111h-98z"/><path fill="#3aa657" d="M331 230h98v55h-98z"/></g>
  <g fill="none" stroke="#fff" stroke-width="18" stroke-linejoin="round">
    <path d="M83 100h98v250c0 37-18 55-49 55s-49-18-49-55z"/><path d="M207 100h98v250c0 37-18 55-49 55s-49-18-49-55z"/><path d="M331 100h98v250c0 37-18 55-49 55s-49-18-49-55z"/>
  </g>
  <g fill="none" stroke="#d9d9d9" stroke-width="5">
    <path d="M83 100h98v250c0 37-18 55-49 55s-49-18-49-55z"/><path d="M207 100h98v250c0 37-18 55-49 55s-49-18-49-55z"/><path d="M331 100h98v250c0 37-18 55-49 55s-49-18-49-55z"/>
  </g>
  <path d="M168 164c34-42 70-47 104-14" fill="none" stroke="#f76624" stroke-width="14" stroke-linecap="round"/><path d="m267 128 17 29-33 2" fill="#f76624"/>
</svg>
